<svg width="14" height="14" viewBox="0 0 14 14" fill="none" xmlns="http://www.w3.org/2000/svg">
<path d="M9.44561 2.75421C9.45815 2.71631 9.48233 2.68334 9.51469 2.65997C9.54705 2.6366 9.58595 2.62402 9.62587 2.62402C9.66579 2.62402 9.7047 2.6366 9.73706 2.65997C9.76942 2.68334 9.79359 2.71631 9.80614 2.75421L10.1448 3.77097C10.2962 4.22423 10.6515 4.57948 11.1048 4.73086L12.1216 5.06949C12.1595 5.08204 12.1925 5.10621 12.2159 5.13857C12.2392 5.17093 12.2518 5.20983 12.2518 5.24974C12.2518 5.28966 12.2392 5.32856 12.2159 5.36092C12.1925 5.39328 12.1595 5.41745 12.1216 5.43L11.1048 5.76863C10.8811 5.84286 10.6778 5.9683 10.5111 6.13494C10.3445 6.30159 10.219 6.50484 10.1448 6.72852L9.80614 7.74528C9.79359 7.78317 9.76942 7.81615 9.73706 7.83952C9.7047 7.86289 9.66579 7.87547 9.62587 7.87547C9.58595 7.87547 9.54705 7.86289 9.51469 7.83952C9.48233 7.81615 9.45815 7.78317 9.44561 7.74528L9.10695 6.72852C9.03271 6.50484 8.90726 6.30159 8.74061 6.13494C8.57395 5.9683 8.37068 5.84286 8.14699 5.76863L7.13014 5.43C7.09224 5.41745 7.05927 5.39328 7.03589 5.36092C7.01252 5.32856 6.99994 5.28966 6.99994 5.24974C6.99994 5.20983 7.01252 5.17093 7.03589 5.13857C7.05927 5.10621 7.09224 5.08204 7.13014 5.06949L8.14699 4.73086C8.37068 4.65663 8.57395 4.53119 8.74061 4.36455C8.90726 4.1979 9.03271 3.99465 9.10695 3.77097L9.44561 2.75421ZM12.1312 0.0862926C12.1399 0.0613778 12.1561 0.0397734 12.1775 0.0244831C12.199 0.00919286 12.2247 0.000976562 12.2511 0.000976562C12.2775 0.000976563 12.3032 0.00919286 12.3247 0.0244831C12.3462 0.0397734 12.3624 0.0613778 12.371 0.0862926L12.5968 0.763553C12.6974 1.06631 12.9346 1.30344 13.2373 1.40406L13.9146 1.62982C13.9396 1.63845 13.9612 1.65464 13.9765 1.67612C13.9918 1.69761 14 1.72332 14 1.74969C14 1.77606 13.9918 1.80178 13.9765 1.82326C13.9612 1.84475 13.9396 1.86093 13.9146 1.86957L13.2373 2.09532C13.0883 2.1452 12.9528 2.22901 12.8416 2.34017C12.7305 2.45132 12.6467 2.58676 12.5968 2.73583L12.371 3.41309C12.3624 3.43801 12.3462 3.45961 12.3247 3.4749C12.3032 3.49019 12.2775 3.49841 12.2511 3.49841C12.2247 3.49841 12.199 3.49019 12.1775 3.4749C12.1561 3.45961 12.1399 3.43801 12.1312 3.41309L11.9055 2.73583C11.8556 2.58676 11.7718 2.45132 11.6606 2.34017C11.5494 2.22901 11.414 2.1452 11.2649 2.09532L10.5876 1.86957C10.5627 1.86093 10.5411 1.84475 10.5258 1.82326C10.5105 1.80178 10.5023 1.77606 10.5023 1.74969C10.5023 1.72332 10.5105 1.69761 10.5258 1.67612C10.5411 1.65464 10.5627 1.63845 10.5876 1.62982L11.2649 1.40406C11.5677 1.30344 11.8048 1.06631 11.9055 0.763553L12.1312 0.0862926Z" fill="black" fill-opacity="0.65"/>
<path d="M5.25049 0.243035C5.33569 0.346931 5.38789 0.473926 5.40036 0.607707C5.41283 0.741487 5.38502 0.875941 5.3205 0.993796C4.8143 1.92249 4.55007 2.96367 4.55218 4.02134C4.55218 7.53977 7.42069 10.3888 10.956 10.3888C11.4181 10.3882 11.8652 10.3416 12.2975 10.2488C12.4298 10.2205 12.5674 10.2316 12.6934 10.2808C12.8194 10.3299 12.9282 10.415 13.0063 10.5253C13.089 10.6402 13.1312 10.7792 13.1263 10.9206C13.1214 11.0621 13.0697 11.1979 12.9792 11.3067C12.2928 12.1497 11.427 12.8289 10.4448 13.2948C9.4626 13.7607 8.3888 14.0017 7.30168 14C3.26756 14 0 10.7502 0 6.74613C0 3.73259 1.84992 1.1478 4.48392 0.0522823C4.61508 -0.00345603 4.76082 -0.0149898 4.89912 0.0194239C5.03742 0.0538376 5.16075 0.132329 5.25049 0.243035ZM4.25115 1.14692C3.23839 1.69023 2.39174 2.49772 1.80116 3.4836C1.21057 4.46948 0.898104 5.59692 0.896959 6.74613C0.896959 10.2637 3.76635 13.1127 7.30168 13.1127C8.14825 13.114 8.98667 12.9475 9.76847 12.6228C10.5503 12.298 11.26 11.8216 11.8565 11.221C11.5613 11.2577 11.2611 11.2761 10.956 11.2761C6.9219 11.2761 3.65522 8.02628 3.65522 4.02222C3.65522 3.00108 3.86699 2.02894 4.25115 1.14692Z" fill="black" fill-opacity="0.65"/>
</svg>
