<svg width="30" height="30" viewBox="0 0 30 30" fill="none" xmlns="http://www.w3.org/2000/svg">
<circle cx="15" cy="15" r="15" fill="#292929"/>
<path d="M15 18C14.2044 18 13.4413 17.6839 12.8787 17.1213C12.3161 16.5587 12 15.7956 12 15C12 14.2044 12.3161 13.4413 12.8787 12.8787C13.4413 12.3161 14.2044 12 15 12C15.7956 12 16.5587 12.3161 17.1213 12.8787C17.6839 13.4413 18 14.2044 18 15C18 15.7956 17.6839 16.5587 17.1213 17.1213C16.5587 17.6839 15.7956 18 15 18ZM15 19C16.0609 19 17.0783 18.5786 17.8284 17.8284C18.5786 17.0783 19 16.0609 19 15C19 13.9391 18.5786 12.9217 17.8284 12.1716C17.0783 11.4214 16.0609 11 15 11C13.9391 11 12.9217 11.4214 12.1716 12.1716C11.4214 12.9217 11 13.9391 11 15C11 16.0609 11.4214 17.0783 12.1716 17.8284C12.9217 18.5786 13.9391 19 15 19ZM15 7C15.1326 7 15.2598 7.05268 15.3536 7.14645C15.4473 7.24021 15.5 7.36739 15.5 7.5V9.5C15.5 9.63261 15.4473 9.75978 15.3536 9.85355C15.2598 9.94732 15.1326 10 15 10C14.8674 10 14.7402 9.94732 14.6464 9.85355C14.5527 9.75978 14.5 9.63261 14.5 9.5V7.5C14.5 7.36739 14.5527 7.24021 14.6464 7.14645C14.7402 7.05268 14.8674 7 15 7ZM15 20C15.1326 20 15.2598 20.0527 15.3536 20.1464C15.4473 20.2402 15.5 20.3674 15.5 20.5V22.5C15.5 22.6326 15.4473 22.7598 15.3536 22.8536C15.2598 22.9473 15.1326 23 15 23C14.8674 23 14.7402 22.9473 14.6464 22.8536C14.5527 22.7598 14.5 22.6326 14.5 22.5V20.5C14.5 20.3674 14.5527 20.2402 14.6464 20.1464C14.7402 20.0527 14.8674 20 15 20ZM23 15C23 15.1326 22.9473 15.2598 22.8536 15.3536C22.7598 15.4473 22.6326 15.5 22.5 15.5H20.5C20.3674 15.5 20.2402 15.4473 20.1464 15.3536C20.0527 15.2598 20 15.1326 20 15C20 14.8674 20.0527 14.7402 20.1464 14.6464C20.2402 14.5527 20.3674 14.5 20.5 14.5H22.5C22.6326 14.5 22.7598 14.5527 22.8536 14.6464C22.9473 14.7402 23 14.8674 23 15ZM10 15C10 15.1326 9.94732 15.2598 9.85355 15.3536C9.75978 15.4473 9.63261 15.5 9.5 15.5H7.5C7.36739 15.5 7.24021 15.4473 7.14645 15.3536C7.05268 15.2598 7 15.1326 7 15C7 14.8674 7.05268 14.7402 7.14645 14.6464C7.24021 14.5527 7.36739 14.5 7.5 14.5H9.5C9.63261 14.5 9.75978 14.5527 9.85355 14.6464C9.94732 14.7402 10 14.8674 10 15ZM20.657 9.343C20.7507 9.43676 20.8034 9.56392 20.8034 9.6965C20.8034 9.82908 20.7507 9.95624 20.657 10.05L19.243 11.465C19.1965 11.5114 19.1413 11.5482 19.0806 11.5733C19.0199 11.5984 18.9548 11.6113 18.8891 11.6113C18.7565 11.6112 18.6293 11.5584 18.5355 11.4645C18.4891 11.418 18.4523 11.3628 18.4272 11.3021C18.4021 11.2414 18.3892 11.1763 18.3892 11.1106C18.3893 10.978 18.4421 10.8508 18.536 10.757L19.95 9.343C20.0438 9.24926 20.1709 9.19661 20.3035 9.19661C20.4361 9.19661 20.5632 9.24926 20.657 9.343ZM11.464 18.536C11.5577 18.6298 11.6104 18.7569 11.6104 18.8895C11.6104 19.0221 11.5577 19.1492 11.464 19.243L10.05 20.657C9.9557 20.7481 9.8294 20.7985 9.6983 20.7973C9.5672 20.7962 9.44179 20.7436 9.34909 20.6509C9.25639 20.5582 9.2038 20.4328 9.20266 20.3017C9.20152 20.1706 9.25192 20.0443 9.343 19.95L10.757 18.536C10.8508 18.4423 10.9779 18.3896 11.1105 18.3896C11.2431 18.3896 11.3702 18.4423 11.464 18.536ZM20.657 20.657C20.5632 20.7507 20.4361 20.8034 20.3035 20.8034C20.1709 20.8034 20.0438 20.7507 19.95 20.657L18.536 19.243C18.4449 19.1487 18.3945 19.0224 18.3957 18.8913C18.3968 18.7602 18.4494 18.6348 18.5421 18.5421C18.6348 18.4494 18.7602 18.3968 18.8913 18.3957C19.0224 18.3945 19.1487 18.4449 19.243 18.536L20.657 19.95C20.7507 20.0438 20.8034 20.1709 20.8034 20.3035C20.8034 20.4361 20.7507 20.5632 20.657 20.657ZM11.464 11.465C11.3702 11.5587 11.2431 11.6114 11.1105 11.6114C10.9779 11.6114 10.8508 11.5587 10.757 11.465L9.343 10.05C9.29524 10.0039 9.25715 9.9487 9.23095 9.8877C9.20474 9.8267 9.19095 9.76109 9.19037 9.6947C9.1898 9.62831 9.20245 9.56247 9.22759 9.50102C9.25273 9.43957 9.28986 9.38375 9.3368 9.3368C9.38375 9.28986 9.43957 9.25273 9.50102 9.22759C9.56247 9.20245 9.62831 9.1898 9.6947 9.19037C9.76109 9.19095 9.8267 9.20474 9.8877 9.23095C9.9487 9.25715 10.0039 9.29524 10.05 9.343L11.464 10.757C11.5106 10.8034 11.5475 10.8586 11.5727 10.9194C11.5979 10.9801 11.6109 11.0452 11.6109 11.111C11.6109 11.1768 11.5979 11.2419 11.5727 11.3026C11.5475 11.3634 11.5106 11.4186 11.464 11.465Z" fill="#D7D7D7" fill-opacity="0.65"/>
</svg>
